HIERARCHY
ROOT boneTorso
{
	OFFSET 0.000000 -0.000000 0.635062
	CHANNELS 6 Xposition Yposition Zposition Xrotation Yrotation Zrotation
	JOINT boneHead
	{
		OFFSET 0.000000 0.000000 0.562500
		CHANNELS 3 Xrotation Yrotation Zrotation
		End Site
		{
			OFFSET 0.000000 0.000000 0.416667
		}
	}
	JOINT boneLegRU
	{
		OFFSET 0.000000 0.125000 0.000000
		CHANNELS 3 Xrotation Yrotation Zrotation
		JOINT boneLegRD
		{
			OFFSET 0.000000 0.000000 -0.312500
			CHANNELS 3 Xrotation Yrotation Zrotation
			JOINT boneFootR
			{
				OFFSET 0.000000 0.000000 -0.312500
				CHANNELS 3 Xrotation Yrotation Zrotation
				End Site
				{
					OFFSET 0.000000 0.000000 -0.062500
				}
			}
		}
	}
	JOINT boneLegLU
	{
		OFFSET 0.000000 -0.125000 0.000000
		CHANNELS 3 Xrotation Yrotation Zrotation
		JOINT boneLegLD
		{
			OFFSET 0.000000 0.000000 -0.312500
			CHANNELS 3 Xrotation Yrotation Zrotation
			JOINT boneFootL
			{
				OFFSET 0.000000 0.000000 -0.312500
				CHANNELS 3 Xrotation Yrotation Zrotation
				End Site
				{
					OFFSET 0.000000 0.000000 -0.062500
				}
			}
		}
	}
	JOINT boneArmRU
	{
		OFFSET 0.000000 0.350000 0.562500
		CHANNELS 3 Xrotation Yrotation Zrotation
		JOINT boneArmRD
		{
			OFFSET 0.000000 0.000000 -0.312500
			CHANNELS 3 Xrotation Yrotation Zrotation
			End Site
			{
				OFFSET 0.000000 0.000000 -0.250000
			}
		}
	}
	JOINT boneArmLU
	{
		OFFSET 0.000000 -0.350000 0.562500
		CHANNELS 3 Xrotation Yrotation Zrotation
		JOINT boneArmLD
		{
			OFFSET 0.000000 0.000000 -0.312500
			CHANNELS 3 Xrotation Yrotation Zrotation
			End Site
			{
				OFFSET 0.000000 0.000000 -0.250000
			}
		}
	}
}
MOTION
Frames: 23
Frame Time: 0.016667
0.000000 -0.000000 0.382975 -0.000000 0.000000 -0.000000 -0.000000 0.000000 -0.000000 -0.000001 0.527831 0.000000 -0.000045 71.001128 0.000060 -0.000003 -12.997927 -0.000001 -0.000009 -31.930554 -0.000013 -0.000001 14.776168 0.000004 0.000005 13.545447 0.000002 0.000004 32.930043 -0.000001 -0.000000 -38.735885 -0.000000 -0.000004 -25.026904 -0.000003 -0.000000 -108.822706 -0.000000 
0.000000 -0.000000 0.360804 -0.000000 0.000000 -0.000000 -0.000000 0.000000 -0.000000 -0.000001 -0.348916 0.000000 -0.000062 75.720843 0.000077 -0.000003 -13.395852 -0.000001 -0.000009 -32.243954 -0.000013 -0.000001 15.718362 0.000004 0.000005 12.776819 0.000002 0.000004 32.930043 -0.000001 -0.000000 -38.735885 -0.000000 -0.000004 -25.026904 -0.000003 -0.000000 -108.822706 -0.000000 
0.000000 -0.000000 0.339372 -0.000000 0.000000 -0.000000 -0.000000 0.000000 -0.000000 -0.000001 -0.981686 0.000000 -0.000092 80.078743 0.000107 -0.000003 -14.594673 -0.000001 -0.000010 -33.187746 -0.000014 -0.000001 18.570728 0.000004 0.000005 10.454618 0.000002 0.000004 32.930043 -0.000001 -0.000000 -38.735885 -0.000000 -0.000004 -25.026904 -0.000003 -0.000000 -108.822706 -0.000000 
0.000000 -0.000000 0.319236 -0.000000 0.000000 -0.000000 -0.000000 0.000000 -0.000000 -0.000001 -1.402664 0.000000 -0.000158 84.059015 0.000173 -0.000003 -16.547243 -0.000001 -0.000010 -34.723930 -0.000014 -0.000001 23.255227 0.000004 0.000005 6.653984 0.000002 0.000004 32.930043 -0.000001 -0.000000 -38.735885 -0.000000 -0.000004 -25.026904 -0.000003 -0.000000 -108.822706 -0.000000 
0.000000 -0.000000 0.301064 -0.000000 0.000000 -0.000000 -0.000000 0.000000 -0.000000 -0.000002 -1.680128 0.000000 -0.000413 87.656346 0.000427 -0.000003 -19.105731 -0.000001 -0.000012 -36.735438 -0.000015 -0.000002 29.447705 0.000004 0.000005 1.648374 0.000003 0.000004 32.930043 -0.000001 -0.000000 -38.735885 -0.000000 -0.000004 -25.026904 -0.000003 -0.000000 -108.822706 -0.000000 
0.000000 -0.000000 0.285516 -0.000000 0.000000 -0.000000 -0.000000 0.000000 -0.000000 -0.000002 -1.919032 0.000000 0.001122 90.884287 -0.001107 -0.000003 -22.007440 -0.000001 -0.000013 -39.015782 -0.000015 -0.000002 36.511002 0.000004 0.000005 -4.047516 0.000003 0.000004 32.930043 -0.000001 -0.000000 -38.735885 -0.000000 -0.000004 -25.026904 -0.000003 -0.000000 -108.822706 -0.000000 
0.000000 -0.000000 0.273076 -0.000000 0.000000 -0.000000 -0.000000 0.000000 -0.000000 -0.000002 -2.244881 0.000000 0.000269 93.780560 -0.000255 -0.000004 -24.909147 -0.000001 -0.000014 -41.296130 -0.000016 -0.000002 43.574302 0.000005 0.000006 -9.743408 0.000003 0.000004 32.930043 -0.000001 -0.000000 -38.735885 -0.000000 -0.000004 -25.026904 -0.000003 -0.000000 -108.822706 -0.000000 
0.000000 -0.000000 0.263917 -0.000000 0.000000 -0.000000 -0.000000 0.000000 -0.000000 -0.000002 -2.774477 0.000000 0.000162 96.403394 -0.000148 -0.000004 -27.467642 -0.000001 -0.000015 -43.307634 -0.000017 -0.000003 49.766780 0.000005 0.000006 -14.749017 0.000004 0.000004 32.930043 -0.000001 -0.000000 -38.735885 -0.000000 -0.000004 -25.026904 -0.000003 -0.000000 -108.822706 -0.000000 
0.000000 -0.000000 0.257885 -0.000000 0.000000 -0.000000 -0.000000 0.000000 -0.000000 -0.000002 -3.590038 0.000000 0.000120 98.818999 -0.000106 -0.000004 -29.420200 -0.000001 -0.000016 -44.843826 -0.000018 -0.000003 54.451269 0.000006 0.000006 -18.549645 0.000004 0.000004 32.930043 -0.000001 -0.000000 -38.735885 -0.000000 -0.000004 -25.026904 -0.000003 -0.000000 -108.822706 -0.000000 
0.000000 -0.000000 0.254605 -0.000000 0.000000 -0.000000 -0.000000 0.000000 -0.000000 -0.000002 -4.730573 0.000000 0.000097 101.087899 -0.000083 -0.000004 -30.619024 -0.000001 -0.000017 -45.787611 -0.000018 -0.000004 57.303621 0.000006 0.000006 -20.871846 0.000004 0.000004 32.930043 -0.000001 -0.000000 -38.735885 -0.000000 -0.000004 -25.026904 -0.000003 -0.000000 -108.822706 -0.000000 
0.000000 -0.000000 0.253614 -0.000000 0.000000 -0.000000 -0.000000 0.000000 -0.000000 -0.000002 -6.199207 -0.000002 0.000110 103.256655 -0.000090 -0.000012 -31.016948 -0.000005 -0.000017 -46.101011 -0.000023 -0.000018 58.245845 0.000029 -0.000006 -21.640476 -0.000003 0.000004 32.930043 -0.000001 -0.000000 -38.735885 -0.000000 -0.000004 -25.026904 -0.000003 -0.000000 -108.822706 -0.000000 
0.000000 -0.000000 0.256525 -0.000000 0.000000 -0.000000 -0.000000 0.000000 -0.000000 -0.000002 -7.975157 -0.000002 0.000096 105.328928 -0.000076 -0.000012 -31.016951 -0.000005 -0.000016 -45.349546 -0.000022 -0.000018 57.448728 0.000028 -0.000006 -21.640476 -0.000003 0.000004 32.930043 -0.000001 -0.000000 -38.735885 -0.000000 -0.000004 -25.026904 -0.000003 -0.000000 -108.822706 -0.000000 
0.000000 -0.000000 0.265523 -0.000000 0.000000 -0.000000 -0.000000 0.000000 -0.000000 -0.000003 -10.061401 -0.000002 0.000087 107.258846 -0.000066 -0.000012 -31.016948 -0.000005 -0.000014 -43.045109 -0.000020 -0.000015 55.008052 0.000026 -0.000006 -21.640476 -0.000003 0.000004 32.930043 -0.000001 -0.000000 -38.735885 -0.000000 -0.000004 -25.026904 -0.000003 -0.000000 -108.822706 -0.000000 
0.000000 -0.000000 0.280711 -0.000000 0.000000 -0.000000 -0.000000 0.000000 -0.000000 -0.000004 -12.462386 -0.000002 0.000080 109.001398 -0.000059 -0.000012 -31.016951 -0.000005 -0.000011 -39.192612 -0.000017 -0.000012 50.936255 0.000022 -0.000006 -21.640476 -0.000003 0.000004 32.930043 -0.000001 -0.000000 -38.735885 -0.000000 -0.000004 -25.026904 -0.000003 -0.000000 -108.822706 -0.000000 
0.000000 -0.000000 0.301593 -0.000000 0.000000 -0.000000 -0.000000 0.000000 -0.000000 -0.000005 -15.151393 -0.000002 0.000074 110.509292 -0.000054 -0.000012 -31.016948 -0.000005 -0.000008 -33.966193 -0.000014 -0.000009 45.428439 0.000017 -0.000006 -21.640476 -0.000003 0.000004 32.930043 -0.000001 -0.000000 -38.735885 -0.000000 -0.000004 -25.026904 -0.000003 -0.000000 -108.822706 -0.000000 
0.000000 -0.000000 0.326899 -0.000000 0.000000 -0.000000 -0.000000 0.000000 -0.000000 -0.000005 -18.061834 -0.000003 0.000071 111.743876 -0.000051 -0.000012 -31.016955 -0.000005 -0.000004 -27.762171 -0.000010 -0.000006 38.917984 0.000013 -0.000006 -21.640474 -0.000003 0.000004 32.930043 -0.000001 -0.000000 -38.735885 -0.000000 -0.000004 -25.026904 -0.000003 -0.000000 -108.822706 -0.000000 
0.000000 -0.000000 0.354693 -0.000000 0.000000 -0.000000 -0.000000 0.000000 -0.000000 -0.000006 -21.092693 -0.000003 0.000068 112.687562 -0.000048 -0.000012 -31.016951 -0.000005 -0.000001 -21.163008 -0.000007 -0.000004 32.034366 0.000009 -0.000006 -21.640474 -0.000003 0.000004 32.930043 -0.000001 -0.000000 -38.735885 -0.000000 -0.000004 -25.026904 -0.000003 -0.000000 -108.822706 -0.000000 
0.000000 -0.000000 0.382785 -0.000000 0.000000 -0.000000 -0.000000 0.000000 -0.000000 -0.000007 -24.130522 -0.000004 0.000067 113.350732 -0.000047 -0.000012 -31.016951 -0.000005 0.000001 -14.794782 -0.000005 -0.000003 25.446274 0.000006 -0.000006 -21.640476 -0.000003 0.000004 32.930043 -0.000001 -0.000000 -38.735885 -0.000000 -0.000004 -25.026904 -0.000003 -0.000000 -108.822706 -0.000000 
0.000000 -0.000000 0.409257 -0.000000 0.000000 -0.000000 -0.000000 0.000000 -0.000000 -0.000008 -27.076501 -0.000004 0.000066 113.767442 -0.000046 -0.000012 -31.016951 -0.000005 0.000003 -9.162062 -0.000003 -0.000002 19.684170 0.000004 -0.000006 -21.640476 -0.000003 0.000004 32.930043 -0.000001 -0.000000 -38.735885 -0.000000 -0.000004 -25.026904 -0.000003 -0.000000 -108.822706 -0.000000 
0.000000 -0.000000 0.432776 -0.000000 0.000000 -0.000000 -0.000000 0.000000 -0.000000 -0.000010 -29.862878 -0.000004 0.000066 113.983754 -0.000045 -0.000012 -31.016951 -0.000005 0.000004 -4.565473 -0.000001 -0.000002 15.056471 0.000002 -0.000006 -21.640476 -0.000003 0.000004 32.930043 -0.000001 -0.000000 -38.735885 -0.000000 -0.000004 -25.026904 -0.000003 -0.000000 -108.822706 -0.000000 
0.000000 -0.000000 0.452631 -0.000000 0.000000 -0.000000 -0.000000 0.000000 -0.000000 -0.000009 -32.454276 -0.000013 0.000070 114.046373 -0.000048 -0.000012 -31.016951 -0.000005 -0.000002 -1.120416 -0.000000 -0.000001 11.675339 0.000000 -0.000006 -21.640478 -0.000003 0.000004 32.930043 -0.000001 -0.000000 -38.735885 -0.000000 -0.000004 -25.026904 -0.000003 -0.000000 -108.822706 -0.000000 
0.000000 -0.000000 0.470926 -0.000000 0.000000 -0.000000 -0.000000 0.000000 -0.000000 -0.000010 -35.126720 -0.000014 0.000070 114.034666 -0.000048 -0.000012 -31.165381 -0.000005 -0.000001 1.565653 -0.000000 -0.000001 9.054914 0.000000 -0.000006 -21.640476 -0.000003 0.000004 32.930043 -0.000001 -0.000000 -38.735885 -0.000000 -0.000004 -25.026904 -0.000003 -0.000000 -108.822706 -0.000000 
0.000000 -0.000000 0.489861 -0.000000 0.000000 -0.000000 -0.000000 0.000000 -0.000000 -0.000012 -38.138468 -0.000015 0.000070 113.957799 -0.000048 -0.000012 -31.612147 -0.000005 -0.000001 3.868287 -0.000000 -0.000001 6.743795 0.000000 -0.000006 -21.640476 -0.000003 0.000004 32.930043 -0.000001 -0.000000 -38.735885 -0.000000 -0.000004 -25.026904 -0.000003 -0.000000 -108.822706 -0.000000 
